<svg width="271" height="148" viewBox="0 0 271 148" fill="none" xmlns="http://www.w3.org/2000/svg">
<rect width="271" height="148" />
<g clip-path="url(#clip0_453_20)">
<path d="M69.388 24.2947C68.1801 24.8137 67.4062 25.5296 67.4062 26.1023C67.4062 26.7108 68.2556 27.8204 70.0486 29.5922C70.7469 30.2723 72.0114 31.5788 72.8607 32.4915C74.6349 34.3886 75.1067 34.7645 76.0315 35.0687C76.8808 35.3372 78.5228 35.1761 79.4288 34.7466C80.5046 34.2454 80.882 33.619 80.9575 32.2231C81.0708 30.2007 80.5801 29.7533 74.4839 26.2991C72.4078 25.1179 70.577 24.1157 70.426 24.062C70.275 24.0083 69.8032 24.1157 69.388 24.2947Z" fill="white"/>
<path d="M62.314 28.6803C60.1057 29.432 56.8028 31.1501 56.3499 31.7586C55.6893 32.7251 55.2552 34.3 55.2363 35.8571C55.2363 37.1278 55.3118 37.432 55.8403 38.4701C56.7651 40.2419 58.0108 41.3336 60.2945 42.3716C63.2199 43.7139 65.1639 43.9466 66.5983 43.1233C67.1456 42.8011 70.3353 39.347 71.3544 37.9689C72.2604 36.7519 71.9395 35.9108 69.335 32.6177C66.1831 28.6088 64.7864 27.8392 62.314 28.6803Z" fill="white"/>
<path d="M83.7347 31.4724C83.6781 31.5798 83.5648 32.6357 83.5082 33.8527C83.395 36.0183 83.395 36.0362 83.9045 36.6089C84.4519 37.2353 89.6799 39.7767 90.8689 39.9735C91.9259 40.1704 93.3791 39.7767 93.8321 39.1682C94.4549 38.327 94.3417 37.3785 93.5112 36.5194C92.8507 35.8393 88.1511 33.1905 85.1125 31.7946C83.8857 31.2219 83.8857 31.2219 83.7347 31.4724Z" fill="white"/>
<path d="M49.7639 34.9441C49.2543 35.1768 47.8199 35.9284 46.5931 36.6443C45.3663 37.3423 44.0263 38.0761 43.6111 38.273L42.875 38.6309V40.2953C42.8939 41.1902 42.9694 42.783 43.0637 43.8211C43.2713 45.9508 43.5167 46.3267 44.7435 46.3267C45.5551 46.3267 46.4232 45.8434 49.1599 43.8569C51.6324 42.0493 51.4436 42.2103 52.0099 41.4229C52.4817 40.7607 52.5006 40.6175 52.5006 38.5056C52.5006 35.9821 52.2741 35.2305 51.387 34.8009C50.6887 34.4609 50.8963 34.443 49.7639 34.9441Z" fill="white"/>
<path d="M75.6323 38.4518C73.9525 39.0782 73.2542 39.6688 69.9324 43.3735C68.2527 45.2169 67.2712 46.5413 67.1391 47.0782C66.9693 47.7583 67.4222 48.6889 68.1772 49.2438C68.9699 49.8165 77.4064 53.5391 79.2371 54.1297C81.1811 54.7561 82.1626 54.7024 84.8426 53.8254C87.4661 52.9664 89.4101 52.1789 89.9196 51.7315C90.8822 50.944 91.8636 47.5256 91.656 45.7896C91.4862 44.3579 90.7878 43.1051 89.7875 42.425C88.9005 41.8165 86.7111 40.9395 81.7096 39.1498C78.3878 37.9686 77.2932 37.8433 75.6323 38.4518Z" fill="white"/>
<path d="M97.3283 39.4008C95.0634 40.3851 94.0254 43.016 94.0254 47.7229C94.0254 50.6402 94.384 51.2845 97.1773 53.5216C100.877 56.4746 102.198 57.1726 103.575 56.9757C104.104 56.9041 104.632 56.6894 104.972 56.3851L105.538 55.9019L105.557 49.62C105.576 44.1256 105.538 43.2666 105.274 42.7654C104.934 42.1569 103.273 40.922 101.424 39.9377C100.046 39.2039 98.3097 38.9713 97.3283 39.4008Z" fill="white"/>
<path d="M38.1542 40.4749C27.8681 46.0767 26.0184 47.1326 25.1691 48.0096C24.2254 48.976 23.9423 49.9067 24.0367 51.6606C24.0933 52.8418 24.1499 53.0387 24.6218 53.4145C25.3012 53.9693 25.9807 53.9514 27.0942 53.3966C28.8117 52.5376 36.1914 49.4056 38.1165 48.7434C39.3621 48.2959 40.1359 47.9201 40.2681 47.7053C40.6078 47.0789 40.1737 39.7053 39.7773 39.7053C39.6641 39.7053 38.928 40.0454 38.1542 40.4749Z" fill="white"/>
<path d="M52.9487 44.1433C50.816 45.6288 50.0045 46.1836 47.7774 47.5975C44.2669 49.8525 44.1159 50.0852 44.2291 53.1993C44.3046 55.5975 44.7198 56.7966 45.6446 57.3693C45.9089 57.5304 47.6641 58.1031 49.5326 58.64C55.2891 60.2686 56.2705 60.0896 58.3089 57.0471C58.894 56.1702 60.1396 54.4163 61.0456 53.1635C61.9704 51.9107 62.8763 50.5863 63.0839 50.2284C63.8011 48.904 63.3481 47.4185 61.9326 46.4163C61.574 46.1657 60.0264 45.3067 58.4976 44.5192C55.0437 42.7474 54.9494 42.7474 52.9487 44.1433Z" fill="white"/>
<path d="M109.033 45.6461C108.202 46.0756 108.184 46.1472 108.184 51.7132C108.184 55.1315 108.259 57.2076 108.391 57.4761C108.58 57.8877 110.297 59.0689 111.562 59.6595C111.902 59.8206 113.072 60.5544 114.148 61.2702C117.092 63.2747 116.865 63.2568 116.884 61.5029C116.903 60.6796 116.903 57.6729 116.865 54.8273C116.828 50.174 116.79 49.5655 116.469 48.9749C115.865 47.8474 113.789 46.4872 111.637 45.8072C110.335 45.3955 109.599 45.3418 109.033 45.6461Z" fill="white"/>
<path d="M38.4761 51.5347C36.0791 52.0716 25.4344 56.8501 24.5285 57.7808L24 58.3177V64.3311C24 68.1074 24.0755 70.4519 24.1887 70.6846C24.4907 71.1857 25.3778 71.5615 26.3026 71.5615C27.1708 71.5436 28.0956 71.1857 31.3607 69.5928C34.1729 68.2148 36.5321 67.2125 38.0231 66.7472C38.797 66.4966 39.4009 66.1924 39.5708 65.9597C39.7218 65.745 39.9294 64.9933 40.0426 64.3132C40.1559 63.6152 40.5711 62.1655 40.9486 61.0917L41.6469 59.123L41.628 56.17C41.6091 53.7897 41.5336 53.0917 41.2883 52.6264C40.7409 51.6242 39.7406 51.2483 38.4761 51.5347Z" fill="white"/>
<path d="M65.3899 52.3399C64.7482 52.6442 63.8234 53.8433 61.4642 57.4227C59.1238 60.9842 58.4444 62.3265 58.4633 63.4003C58.4821 65.4943 60.0298 67.3735 63.9178 70.0222C66.6922 71.9014 68.0888 72.5278 69.561 72.5278C70.2971 72.5278 70.9576 72.4026 71.3729 72.2057C71.7315 72.0267 73.3168 70.7023 74.8645 69.2527C76.431 67.8209 78.2617 66.1744 78.9412 65.6196L80.2057 64.5994L80.3379 62.0043C80.47 59.5524 80.4511 59.3556 80.0547 58.6039C79.8283 58.1565 79.3753 57.5659 79.0544 57.2974C78.4694 56.8321 73.3923 54.4518 69.1458 52.6442C67.8057 52.0894 66.1826 51.9462 65.3899 52.3399Z" fill="white"/>
<path d="M91.1938 54.4876C90.6276 54.6308 88.8723 55.2393 87.287 55.8299C83.55 57.2258 83.0781 57.7448 83.0781 60.3936C83.0781 62.7023 84.1351 64.3847 86.0224 65.029C96.9314 68.7337 97.9695 68.8589 99.687 66.6934C100.499 65.6375 102.518 62.0401 102.518 61.6285C102.518 60.9126 101.574 59.982 99.1396 58.246C97.7241 57.2437 96.0632 56.0446 95.4404 55.5614C93.5719 54.1475 93.0434 54.0223 91.1938 54.4876Z" fill="white"/>
<path d="M45.4579 60.6438C44.6652 60.787 43.4761 61.6102 43.1175 62.2724C42.3248 63.7221 43.5516 67.731 45.2691 69.3418C46.628 70.5946 48.3644 71.0062 49.7044 70.4156C50.4594 70.0756 53.1206 68.089 54.4229 66.9078C56.1404 65.3328 56.0083 63.7221 54.0643 62.7378C52.8563 62.1293 48.1946 60.7154 47.0244 60.608C46.5525 60.5722 45.8542 60.5901 45.4579 60.6438Z" fill="white"/>
<path d="M106.363 61.1456C105.438 61.7004 102.475 66.479 101.852 68.4476C100.909 71.4186 102.532 74.9443 105.759 76.9667C109.194 79.1143 111.308 80.1344 112.29 80.1523C114.12 80.1523 115.328 79.2754 116.329 77.1993C116.725 76.3582 116.763 76.036 116.819 72.1881C116.857 69.5931 116.819 67.8391 116.687 67.4275C116.423 66.5685 115.347 65.5662 112.554 63.508C109.024 60.913 107.647 60.394 106.363 61.1456Z" fill="white"/>
<path d="M81.2818 67.1596C80.0362 67.7144 78.1111 69.2714 76.6578 70.8643C74.8648 72.833 74.4684 73.9247 75.0346 75.2312C75.1856 75.5533 76.6578 77.4862 78.2998 79.5086C79.9418 81.5488 81.6782 83.7323 82.1689 84.4124C82.6596 85.0746 83.3957 85.9515 83.792 86.3632C85.0377 87.6875 85.9625 87.4012 89.6806 84.5914C90.7753 83.7681 92.8514 82.2289 94.3047 81.1909C97.8152 78.6674 99.0042 77.6294 99.4949 76.6629C99.8913 75.8934 99.8913 75.8397 99.5893 74.8374C99.0231 72.9761 98.287 71.9918 97.0413 71.3833C96.6827 71.2043 94.248 70.3811 91.6623 69.5399C89.0578 68.6987 86.0946 67.7323 85.0566 67.3743C82.8295 66.6227 82.5275 66.6048 81.2818 67.1596Z" fill="white"/>
<path d="M39.386 68.9489C37.593 69.4858 29.6283 73.1547 28.9677 73.7453C28.3638 74.2822 28.4204 74.8907 29.2131 76.7163C30.1945 78.9892 32.7614 83.9109 33.2521 84.5194C33.8938 85.2711 34.6676 85.5216 35.7623 85.3248C36.8947 85.1279 37.291 84.8594 39.235 82.9802C40.0655 82.1749 41.6697 80.7073 42.7644 79.7409C45.0481 77.7364 45.218 77.3784 45.1047 75.1413C45.0292 73.4769 44.614 72.6357 43.0475 70.9355C42.0283 69.8259 40.5751 68.6805 40.2542 68.7162C40.1976 68.7162 39.8012 68.8236 39.386 68.9489Z" fill="white"/>
<path d="M55.4046 69.3425C55.0082 69.5931 54.291 70.1121 53.8192 70.47C52.4225 71.5439 51.7997 71.9197 50.554 72.385C47.9683 73.3694 48.0438 74.2463 51.1202 79.4365C51.8374 80.6714 52.8189 82.3179 53.2718 83.0875C54.4609 85.1099 55.9519 86.5058 57.3297 86.8817C59.1038 87.3649 61.1988 86.9533 62.1802 85.9152C62.8974 85.1814 64.9735 79.5976 65.4265 77.2351C65.7662 75.5349 64.5206 73.8705 60.7647 71.0069C57.8015 68.7519 56.8201 68.4477 55.4046 69.3425Z" fill="white"/>
<path d="M24.3209 76.5373C24.0377 76.8237 24 77.4322 24 81.3695C24 86.2375 24.0377 86.4165 25.0569 86.4165C25.8307 86.4165 29.6621 85.1637 29.6621 84.9131C29.6621 84.5373 25.6986 77.0563 25.2645 76.6089C24.7927 76.1257 24.7172 76.1257 24.3209 76.5373Z" fill="white"/>
<path d="M68.5413 77.0561C67.8052 77.8078 67.4844 78.6132 66.7483 81.5304C66.3897 82.9801 65.9556 84.6266 65.8046 85.1635C65.6536 85.7004 65.4838 86.5953 65.4083 87.1501C65.2007 88.7966 65.6348 89.4409 69.1641 92.8235C72.618 96.1344 73.4485 96.7966 74.2412 96.7966C74.8074 96.7966 75.4302 96.5461 75.8077 96.1881C76.6381 95.4007 80.7148 90.6937 80.9413 90.2642C81.1112 89.9778 81.2433 89.3335 81.2622 88.8324C81.2622 87.6691 80.8469 86.9711 78.4122 84.1434C72.6746 77.5036 71.8442 76.7519 69.9757 76.6087C69.1075 76.555 68.9754 76.5908 68.5413 77.0561Z" fill="white"/>
<path d="M99.8119 79.8485C98.9625 80.5643 96.7732 82.193 94.9424 83.4995C91.281 86.1124 90.4316 86.882 90.4316 87.6695C90.4316 88.4033 91.2243 89.2086 92.2813 89.5308C93.7157 89.9782 99.2834 91.231 100.812 91.4458C102.096 91.6247 102.379 91.6068 103.794 91.2489C104.644 91.0341 105.625 90.6762 105.965 90.4614C106.72 89.9782 107.871 88.4033 109.003 86.3272C110.834 82.9268 110.041 81.7634 104.209 79.3473C103.152 78.8999 102.058 78.542 101.812 78.542C101.529 78.542 100.812 79.0073 99.8119 79.8485Z" fill="white"/>
<path d="M45.0416 80.9927C42.8145 82.7824 39.153 85.9502 38.417 86.7556C36.9259 88.3842 37.1336 89.5475 39.3606 92.1247C40.0212 92.8764 41.1536 94.2903 41.9086 95.2746C43.645 97.5117 44.1168 97.995 44.985 98.4245C46.6648 99.2478 48.8541 98.514 49.7412 96.8317C50.3829 95.6326 51.8739 91.9994 52.1381 91.0151C52.5911 89.297 52.1759 88.0263 49.9299 84.1426C48.3634 81.4402 47.1555 79.6326 46.929 79.6326C46.8346 79.6326 45.9853 80.2411 45.0416 80.9927Z" fill="white"/>
<path d="M114.881 83.6424C113.768 84.1256 113.655 84.2688 111.956 87.2218C109.635 91.2308 109.635 91.2666 110.446 94.1122C110.767 95.2397 111.333 97.4053 111.692 98.9086C112.635 102.81 112.503 102.595 113.768 102.47C115.183 102.327 116.165 101.432 116.693 99.8035C116.807 99.4455 116.901 96.1883 116.939 91.6961L116.976 84.1793L116.542 83.7677C116.07 83.3203 115.674 83.2845 114.881 83.6424Z" fill="white"/>
<path d="M29.2846 87.5617C28.3221 87.9018 25.3212 89.4409 24.6228 89.942L24 90.3715V94.7205C24 99.0158 24 99.0516 24.4907 99.9823C25.0947 101.146 25.6609 101.557 29.4734 103.597C32.7385 105.334 34.0597 106.067 36.0603 107.231C36.7209 107.606 37.7966 108.161 38.4572 108.448L39.6651 108.949L39.835 108.287C39.9294 107.929 40.1936 106.944 40.4201 106.103C41.6658 101.504 41.628 101.897 41.1939 100.573C40.7598 99.2306 39.4009 96.9577 37.3248 94.1657C36.551 93.0919 35.2865 91.338 34.5315 90.2642C33.4746 88.7608 32.965 88.206 32.3799 87.8839C31.3985 87.3827 30.1339 87.2396 29.2846 87.5617Z" fill="white"/>
<path d="M57.0148 89.817C55.6748 90.1928 55.4483 90.4971 54.1083 93.9154C52.2964 98.5508 52.3153 98.7477 54.8632 100.555C55.4861 101.003 56.6751 101.969 57.5055 102.721C60.129 105.065 61.4501 105.692 63.5074 105.531C64.0358 105.495 66.2441 104.904 68.3957 104.242C72.6988 102.918 73.2651 102.596 73.2651 101.504C73.2651 100.215 72.529 99.3919 68.3579 95.9915C67.1689 95.0072 65.6967 93.7902 65.0739 93.2532C63.6961 92.072 62.2617 91.0519 61.2803 90.5687C59.978 89.9423 57.883 89.5664 57.0148 89.817Z" fill="white"/>
<path d="M85.2101 90.9612C83.8889 91.3728 83.1906 91.8918 80.737 94.3258C77.8116 97.2431 77.3586 97.9768 77.3775 99.7487C77.3964 101.163 77.6606 102.469 78.0758 103.239C78.7742 104.509 80.9446 105.673 84.6439 106.729C87.2484 107.462 88.9282 107.552 90.1738 107.015C90.9854 106.657 91.1364 106.514 96.3267 100.751C101.366 95.1849 101.649 94.827 101.328 94.5048C101.177 94.3616 99.0633 93.7531 96.6475 93.1267C94.2128 92.5182 91.3063 91.7487 90.155 91.4265C87.7203 90.7464 86.3047 90.6211 85.2101 90.9612Z" fill="white"/>
<path d="M105.875 94.47C104.913 94.7384 104.309 95.2396 102.988 96.7608C102.27 97.6199 100.383 99.7496 98.8354 101.539C95.0984 105.799 94.8342 106.121 94.4001 107.016C93.9471 108 93.9282 108.68 94.3812 109.611C94.7209 110.309 95.6458 110.935 96.3441 110.935C96.8537 110.935 97.854 110.452 101.006 108.68C102.723 107.732 105.271 106.354 106.668 105.62C108.065 104.886 109.367 104.152 109.556 103.991C109.858 103.687 109.877 103.562 109.593 101.539C109.254 99.1053 108.499 96.0628 108.027 95.329C107.782 94.9353 106.725 94.2373 106.441 94.3089C106.423 94.3089 106.158 94.3805 105.875 94.47Z" fill="white"/>
<path d="M47.8785 101.109C46.2554 101.449 44.5945 102.04 44.4813 102.308C44.3303 102.702 42.6694 110.613 42.726 110.666C42.9525 110.881 47.5577 113.423 49.3884 114.335C50.6341 114.962 53.0499 116.232 54.7674 117.163C59.7878 119.901 61.9394 120.957 61.9394 120.671C61.9394 120.116 60.958 115.731 60.5428 114.389C60.2974 113.602 59.9388 112.116 59.7878 111.096C59.2594 107.91 58.41 106.729 54.39 103.543C51.3324 101.109 50.0679 100.644 47.8785 101.109Z" fill="white"/>
<path d="M71.188 106.121C70.2065 106.515 68.7344 107.087 67.9228 107.374C65.0918 108.376 63.6574 109.11 63.1667 109.826C62.5816 110.667 62.4306 111.383 62.6571 112.277C63.8461 116.895 65.1862 121.62 65.4126 121.96C65.7901 122.479 67.2811 123.463 68.1682 123.749C68.5268 123.875 69.2817 123.982 69.8291 124C70.6784 124 71.1125 123.857 73.0376 122.908C78.3034 120.295 79.0394 119.758 78.8507 118.631C78.6242 117.217 77.3974 111.239 76.9444 109.342C76.416 107.051 76.0763 106.371 75.1515 105.799C74.2266 105.19 73.283 105.28 71.188 106.121Z" fill="white"/>
<path d="M79.9377 108.877C79.5413 109.449 79.6734 110.308 80.5416 113.065C81.3154 115.463 81.5231 115.874 82.3535 116.644C82.9197 117.181 83.0518 117.217 83.92 117.163C84.675 117.091 85.4488 116.769 87.6947 115.57C89.2613 114.747 90.8466 113.906 91.243 113.709C91.6393 113.512 92.1867 113.19 92.4509 112.975C92.8661 112.671 92.9039 112.563 92.7151 112.223C92.3188 111.507 91.1298 111.06 84.9958 109.306C81.4476 108.286 80.4095 108.197 79.9377 108.877Z" fill="white"/>
</g>
<path d="M142.392 67.12L142.776 66.304C144.168 66.336 145.32 66.56 146.232 66.976C147.144 67.376 147.816 67.928 148.248 68.632C148.68 69.32 148.896 70.112 148.896 71.008C148.896 71.968 148.664 72.824 148.2 73.576C147.752 74.328 147.088 74.92 146.208 75.352C145.328 75.784 144.224 76 142.896 76H130.272L131.664 66.76L130.272 58H142.44C144.104 58 145.392 58.392 146.304 59.176C147.232 59.944 147.696 61.008 147.696 62.368C147.696 63.104 147.52 63.816 147.168 64.504C146.832 65.192 146.272 65.776 145.488 66.256C144.72 66.72 143.688 67.008 142.392 67.12ZM134.304 74.968L132.744 73H142.056C142.92 73 143.584 72.8 144.048 72.4C144.528 71.984 144.768 71.408 144.768 70.672C144.768 69.92 144.496 69.328 143.952 68.896C143.408 68.448 142.608 68.224 141.552 68.224H133.968V65.296H141.072C141.792 65.296 142.384 65.096 142.848 64.696C143.328 64.28 143.568 63.704 143.568 62.968C143.568 62.408 143.368 61.944 142.968 61.576C142.568 61.192 141.992 61 141.24 61H132.744L134.304 59.032L135.576 66.76L134.304 74.968ZM153.698 72.208V68.896H166.178V72.208H153.698ZM162.65 58L171.074 76H166.73L159.362 59.656H160.706L153.338 76H148.994L157.418 58H162.65ZM171.161 70.12H175.289C175.385 70.728 175.649 71.264 176.081 71.728C176.529 72.176 177.121 72.528 177.857 72.784C178.609 73.024 179.473 73.144 180.449 73.144C181.873 73.144 182.993 72.944 183.809 72.544C184.641 72.128 185.057 71.552 185.057 70.816C185.057 70.24 184.817 69.8 184.337 69.496C183.873 69.176 183.001 68.944 181.721 68.8L178.097 68.392C175.761 68.136 174.065 67.592 173.009 66.76C171.969 65.912 171.449 64.736 171.449 63.232C171.449 62.048 171.793 61.04 172.481 60.208C173.185 59.376 174.169 58.744 175.433 58.312C176.697 57.864 178.185 57.64 179.897 57.64C181.561 57.64 183.041 57.888 184.337 58.384C185.633 58.864 186.665 59.544 187.433 60.424C188.201 61.288 188.617 62.304 188.681 63.472H184.553C184.473 62.944 184.233 62.488 183.833 62.104C183.449 61.704 182.913 61.4 182.225 61.192C181.537 60.968 180.729 60.856 179.801 60.856C178.505 60.856 177.473 61.048 176.705 61.432C175.937 61.816 175.553 62.36 175.553 63.064C175.553 63.608 175.777 64.032 176.225 64.336C176.689 64.624 177.497 64.84 178.649 64.984L182.417 65.44C184.081 65.616 185.401 65.904 186.377 66.304C187.369 66.688 188.073 67.208 188.489 67.864C188.921 68.52 189.137 69.352 189.137 70.36C189.137 71.56 188.769 72.616 188.033 73.528C187.313 74.424 186.297 75.12 184.985 75.616C183.673 76.112 182.137 76.36 180.377 76.36C178.585 76.36 177.009 76.104 175.649 75.592C174.289 75.064 173.217 74.336 172.433 73.408C171.649 72.464 171.225 71.368 171.161 70.12ZM193.964 72.208V68.896H206.444V72.208H193.964ZM202.916 58L211.34 76H206.996L199.628 59.656H200.972L193.604 76H189.26L197.684 58H202.916ZM217.358 58V74.2L215.51 72.4H229.022V76H213.278V58H217.358ZM233.357 59.824H237.413V76H233.357V59.824ZM226.181 58H244.565V61.6H226.181V58ZM150.336 98.68C150.16 100.2 149.624 101.544 148.728 102.712C147.848 103.864 146.68 104.76 145.224 105.4C143.784 106.04 142.136 106.36 140.28 106.36C138.232 106.36 136.432 105.968 134.88 105.184C133.344 104.4 132.144 103.312 131.28 101.92C130.416 100.512 129.984 98.872 129.984 97C129.984 95.128 130.416 93.496 131.28 92.104C132.144 90.696 133.344 89.6 134.88 88.816C136.432 88.032 138.232 87.64 140.28 87.64C142.136 87.64 143.784 87.96 145.224 88.6C146.68 89.24 147.848 90.136 148.728 91.288C149.624 92.44 150.16 93.784 150.336 95.32H146.232C146.072 94.472 145.728 93.744 145.2 93.136C144.672 92.512 143.992 92.032 143.16 91.696C142.328 91.36 141.36 91.192 140.256 91.192C138.992 91.192 137.896 91.432 136.968 91.912C136.056 92.376 135.352 93.048 134.856 93.928C134.36 94.792 134.112 95.816 134.112 97C134.112 98.184 134.36 99.216 134.856 100.096C135.352 100.96 136.056 101.632 136.968 102.112C137.896 102.576 138.992 102.808 140.256 102.808C141.36 102.808 142.328 102.648 143.16 102.328C143.992 101.992 144.672 101.52 145.2 100.912C145.728 100.288 146.072 99.544 146.232 98.68H150.336ZM162.62 106.36C160.524 106.36 158.684 105.968 157.1 105.184C155.532 104.4 154.308 103.312 153.428 101.92C152.548 100.512 152.108 98.872 152.108 97C152.108 95.128 152.548 93.496 153.428 92.104C154.308 90.696 155.532 89.6 157.1 88.816C158.684 88.032 160.524 87.64 162.62 87.64C164.716 87.64 166.548 88.032 168.116 88.816C169.7 89.6 170.932 90.696 171.812 92.104C172.692 93.496 173.132 95.128 173.132 97C173.132 98.872 172.692 100.512 171.812 101.92C170.932 103.312 169.7 104.4 168.116 105.184C166.548 105.968 164.716 106.36 162.62 106.36ZM162.62 102.736C163.932 102.736 165.06 102.504 166.004 102.04C166.964 101.576 167.7 100.912 168.212 100.048C168.74 99.184 169.004 98.168 169.004 97C169.004 95.832 168.74 94.816 168.212 93.952C167.7 93.088 166.964 92.424 166.004 91.96C165.06 91.496 163.932 91.264 162.62 91.264C161.324 91.264 160.196 91.496 159.236 91.96C158.276 92.424 157.532 93.088 157.004 93.952C156.492 94.816 156.236 95.832 156.236 97C156.236 98.168 156.492 99.184 157.004 100.048C157.532 100.912 158.276 101.576 159.236 102.04C160.196 102.504 161.324 102.736 162.62 102.736ZM184.486 88C186.582 88 188.414 88.376 189.982 89.128C191.566 89.88 192.798 90.928 193.678 92.272C194.558 93.616 194.998 95.192 194.998 97C194.998 98.792 194.558 100.368 193.678 101.728C192.798 103.072 191.566 104.12 189.982 104.872C188.414 105.624 186.582 106 184.486 106H175.942V88H184.486ZM179.998 104.392L177.934 102.4H184.798C186.014 102.4 187.078 102.176 187.99 101.728C188.918 101.28 189.63 100.648 190.126 99.832C190.622 99.016 190.87 98.072 190.87 97C190.87 95.912 190.622 94.968 190.126 94.168C189.63 93.352 188.918 92.72 187.99 92.272C187.078 91.824 186.014 91.6 184.798 91.6H177.934L179.998 89.608V104.392ZM212.501 95.44V98.56H199.613V95.44H212.501ZM202.349 97L201.149 104.632L199.373 102.616H213.245V106H197.045L198.437 97L197.045 88H213.125V91.384H199.373L201.149 89.368L202.349 97Z" fill="white"/>
<path d="M137.75 45.03C137.683 45.6433 137.467 46.1867 137.1 46.66C136.74 47.1267 136.267 47.49 135.68 47.75C135.093 48.01 134.423 48.14 133.67 48.14C132.83 48.14 132.093 47.9767 131.46 47.65C130.827 47.3233 130.333 46.87 129.98 46.29C129.627 45.7033 129.45 45.0233 129.45 44.25C129.45 43.4767 129.627 42.8 129.98 42.22C130.333 41.6333 130.827 41.1767 131.46 40.85C132.093 40.5233 132.83 40.36 133.67 40.36C134.423 40.36 135.093 40.49 135.68 40.75C136.267 41.01 136.74 41.3733 137.1 41.84C137.467 42.3067 137.683 42.85 137.75 43.47H136.42C136.347 43.07 136.187 42.7267 135.94 42.44C135.7 42.1533 135.387 41.9333 135 41.78C134.613 41.62 134.167 41.54 133.66 41.54C133.073 41.54 132.563 41.65 132.13 41.87C131.703 42.09 131.373 42.4033 131.14 42.81C130.907 43.2167 130.79 43.6967 130.79 44.25C130.79 44.8033 130.907 45.2833 131.14 45.69C131.373 46.0967 131.703 46.41 132.13 46.63C132.563 46.85 133.073 46.96 133.66 46.96C134.167 46.96 134.613 46.8833 135 46.73C135.387 46.5767 135.7 46.3567 135.94 46.07C136.187 45.7767 136.347 45.43 136.42 45.03H137.75ZM145.956 47V49.43H144.826V48H139.166V49.43H138.036V47H139.496L139.856 47.02H143.986L144.306 47H145.956ZM139.296 42.34H144.906V47.62H143.606V42.74L144.206 43.34H139.976L140.536 42.9C140.569 43.1933 140.589 43.4767 140.596 43.75C140.609 44.0167 140.616 44.2667 140.616 44.5C140.616 45.4733 140.482 46.2367 140.216 46.79C139.956 47.3433 139.589 47.62 139.116 47.62L138.586 47.17C139.132 46.77 139.406 45.7967 139.406 44.25C139.406 43.95 139.396 43.64 139.376 43.32C139.356 42.9933 139.329 42.6667 139.296 42.34ZM149.831 48.14C149.171 48.14 148.584 48.0167 148.071 47.77C147.557 47.5167 147.154 47.1667 146.861 46.72C146.567 46.2733 146.421 45.7533 146.421 45.16C146.421 44.5733 146.557 44.06 146.831 43.62C147.111 43.1733 147.494 42.8267 147.981 42.58C148.474 42.3267 149.037 42.2 149.671 42.2C150.304 42.2 150.851 42.3433 151.311 42.63C151.777 42.91 152.137 43.3067 152.391 43.82C152.644 44.3333 152.771 44.9367 152.771 45.63H147.441V44.64H152.121L151.471 45.01C151.451 44.6367 151.361 44.3167 151.201 44.05C151.047 43.7833 150.837 43.58 150.571 43.44C150.311 43.2933 150.001 43.22 149.641 43.22C149.261 43.22 148.927 43.2967 148.641 43.45C148.361 43.6033 148.141 43.82 147.981 44.1C147.821 44.3733 147.741 44.7 147.741 45.08C147.741 45.5 147.834 45.8633 148.021 46.17C148.214 46.4767 148.484 46.7133 148.831 46.88C149.184 47.04 149.601 47.12 150.081 47.12C150.514 47.12 150.957 47.0533 151.411 46.92C151.864 46.78 152.264 46.5867 152.611 46.34V47.28C152.264 47.5467 151.841 47.7567 151.341 47.91C150.847 48.0633 150.344 48.14 149.831 48.14ZM154.733 42.34H160.303V48H159.003V42.74L159.603 43.34H155.383L155.943 42.88C155.976 43.2933 156.003 43.6867 156.023 44.06C156.049 44.4267 156.063 44.7567 156.063 45.05C156.063 46.1167 155.913 46.8933 155.613 47.38C155.313 47.8667 154.829 48.11 154.163 48.11C153.983 48.11 153.809 48.09 153.643 48.05C153.476 48.01 153.316 47.9467 153.163 47.86V46.89C153.283 46.9367 153.399 46.9733 153.513 47C153.633 47.0267 153.743 47.04 153.843 47.04C154.209 47.04 154.473 46.87 154.633 46.53C154.799 46.19 154.883 45.6367 154.883 44.87C154.883 44.5367 154.869 44.1567 154.843 43.73C154.823 43.3033 154.786 42.84 154.733 42.34ZM166.962 48L166.742 45.9L167.002 45.17L166.742 44.45L166.962 42.34H168.302L168.002 45.17L168.302 48H166.962ZM167.362 45.17C167.236 45.7633 167.026 46.2833 166.732 46.73C166.439 47.1767 166.076 47.5233 165.642 47.77C165.216 48.0167 164.739 48.14 164.212 48.14C163.659 48.14 163.169 48.0167 162.742 47.77C162.316 47.5167 161.982 47.1667 161.742 46.72C161.502 46.2733 161.382 45.7567 161.382 45.17C161.382 44.5767 161.502 44.06 161.742 43.62C161.982 43.1733 162.316 42.8267 162.742 42.58C163.169 42.3267 163.659 42.2 164.212 42.2C164.739 42.2 165.216 42.3233 165.642 42.57C166.076 42.8167 166.439 43.1633 166.732 43.61C167.032 44.05 167.242 44.57 167.362 45.17ZM162.702 45.17C162.702 45.55 162.779 45.8867 162.932 46.18C163.092 46.4667 163.309 46.6933 163.582 46.86C163.856 47.02 164.169 47.1 164.522 47.1C164.882 47.1 165.216 47.02 165.522 46.86C165.829 46.6933 166.099 46.4667 166.332 46.18C166.572 45.8867 166.762 45.55 166.902 45.17C166.762 44.79 166.572 44.4567 166.332 44.17C166.099 43.8767 165.829 43.65 165.522 43.49C165.216 43.3233 164.882 43.24 164.522 43.24C164.169 43.24 163.856 43.3233 163.582 43.49C163.309 43.65 163.092 43.8767 162.932 44.17C162.779 44.4567 162.702 44.79 162.702 45.17ZM169.553 42.34H170.843V48H169.553V42.34ZM174.363 42.34H175.653V48H174.363V42.34ZM170.283 44.63H174.903V45.63H170.283V44.63ZM180.164 48.14C179.477 48.14 178.874 48.0167 178.354 47.77C177.84 47.5167 177.437 47.1667 177.144 46.72C176.857 46.2733 176.714 45.7567 176.714 45.17C176.714 44.5767 176.857 44.06 177.144 43.62C177.437 43.1733 177.84 42.8267 178.354 42.58C178.874 42.3267 179.477 42.2 180.164 42.2C180.85 42.2 181.45 42.3267 181.964 42.58C182.484 42.8267 182.887 43.1733 183.174 43.62C183.467 44.06 183.614 44.5767 183.614 45.17C183.614 45.7567 183.467 46.2733 183.174 46.72C182.887 47.1667 182.484 47.5167 181.964 47.77C181.45 48.0167 180.85 48.14 180.164 48.14ZM180.164 47.12C180.604 47.12 180.98 47.04 181.294 46.88C181.614 46.72 181.86 46.4967 182.034 46.21C182.207 45.9167 182.294 45.57 182.294 45.17C182.294 44.77 182.207 44.4267 182.034 44.14C181.86 43.8467 181.614 43.62 181.294 43.46C180.98 43.3 180.604 43.22 180.164 43.22C179.73 43.22 179.354 43.3 179.034 43.46C178.714 43.62 178.467 43.8467 178.294 44.14C178.12 44.4267 178.034 44.77 178.034 45.17C178.034 45.57 178.12 45.9167 178.294 46.21C178.467 46.4967 178.714 46.72 179.034 46.88C179.354 47.04 179.73 47.12 180.164 47.12ZM187.187 48L187.477 45.17L187.187 42.34H191.287C191.834 42.34 192.26 42.4667 192.567 42.72C192.88 42.9733 193.037 43.3233 193.037 43.77C193.037 44.1833 192.88 44.5167 192.567 44.77C192.26 45.0167 191.83 45.1633 191.277 45.21L191.377 44.97C192.03 44.9833 192.53 45.1167 192.877 45.37C193.224 45.6233 193.397 45.98 193.397 46.44C193.397 46.9267 193.22 47.31 192.867 47.59C192.52 47.8633 192.037 48 191.417 48H187.187ZM188.447 47.68L187.947 47.1H191.087C191.44 47.1 191.694 47.0333 191.847 46.9C192.007 46.76 192.087 46.5667 192.087 46.32C192.087 46.1 191.997 45.9167 191.817 45.77C191.644 45.6233 191.35 45.55 190.937 45.55H188.227V44.71H190.747C191.087 44.71 191.334 44.6433 191.487 44.51C191.647 44.37 191.727 44.19 191.727 43.97C191.727 43.7567 191.657 43.5833 191.517 43.45C191.384 43.31 191.157 43.24 190.837 43.24H187.957L188.447 42.67L188.727 45.17L188.447 47.68Z" fill="white"/>
<defs>
<clipPath id="clip0_453_20">
<rect width="93" height="100" fill="white" transform="translate(24 24)"/>
</clipPath>
</defs>
</svg>
